<mxfile host="app.diagrams.net" modified="2022-08-17T06:43:46.109Z" agent="5.0 (Windows)" etag="4GPQUrG2iaSI8YY-ru2o" version="20.2.4" type="github">
  <diagram id="DxU8rCLsVIdvfiSokkdA" name="Sivu-1">
    <mxGraphModel dx="1422" dy="752" grid="1" gridSize="10" guides="1" tooltips="1" connect="1" arrows="1" fold="1" page="1" pageScale="1" pageWidth="827" pageHeight="1169" math="0" shadow="0">
      <root>
        <mxCell id="0" />
        <mxCell id="1" parent="0" />
        <mxCell id="EVIMyoNARV4k-gj09k50-1" value="Peliprojekti_Luokkakaavio" style="rounded=0;whiteSpace=wrap;html=1;verticalAlign=top;align=center;" vertex="1" parent="1">
          <mxGeometry x="40" y="40" width="720" height="760" as="geometry" />
        </mxCell>
        <mxCell id="EVIMyoNARV4k-gj09k50-2" value="Sanalista" style="swimlane;fontStyle=1;align=center;verticalAlign=top;childLayout=stackLayout;horizontal=1;startSize=26;horizontalStack=0;resizeParent=1;resizeParentMax=0;resizeLast=0;collapsible=1;marginBottom=0;" vertex="1" parent="1">
          <mxGeometry x="310" y="180" width="190" height="140" as="geometry" />
        </mxCell>
        <mxCell id="EVIMyoNARV4k-gj09k50-3" value="+ sanalista.txt" style="text;strokeColor=none;fillColor=none;align=left;verticalAlign=top;spacingLeft=4;spacingRight=4;overflow=hidden;rotatable=0;points=[[0,0.5],[1,0.5]];portConstraint=eastwest;" vertex="1" parent="EVIMyoNARV4k-gj09k50-2">
          <mxGeometry y="26" width="190" height="26" as="geometry" />
        </mxCell>
        <mxCell id="EVIMyoNARV4k-gj09k50-4" value="" style="line;strokeWidth=1;fillColor=none;align=left;verticalAlign=middle;spacingTop=-1;spacingLeft=3;spacingRight=3;rotatable=0;labelPosition=right;points=[];portConstraint=eastwest;" vertex="1" parent="EVIMyoNARV4k-gj09k50-2">
          <mxGeometry y="52" width="190" height="8" as="geometry" />
        </mxCell>
        <mxCell id="EVIMyoNARV4k-gj09k50-5" value="+ Lista sanoja, josta tiedostonluku&#xa;arpoo sanan." style="text;strokeColor=none;fillColor=none;align=left;verticalAlign=top;spacingLeft=4;spacingRight=4;overflow=hidden;rotatable=0;points=[[0,0.5],[1,0.5]];portConstraint=eastwest;" vertex="1" parent="EVIMyoNARV4k-gj09k50-2">
          <mxGeometry y="60" width="190" height="80" as="geometry" />
        </mxCell>
        <mxCell id="EVIMyoNARV4k-gj09k50-6" value="Tiedostonluku" style="swimlane;fontStyle=1;align=center;verticalAlign=top;childLayout=stackLayout;horizontal=1;startSize=26;horizontalStack=0;resizeParent=1;resizeParentMax=0;resizeLast=0;collapsible=1;marginBottom=0;" vertex="1" parent="1">
          <mxGeometry x="70" y="250" width="190" height="134" as="geometry" />
        </mxCell>
        <mxCell id="EVIMyoNARV4k-gj09k50-7" value="" style="line;strokeWidth=1;fillColor=none;align=left;verticalAlign=middle;spacingTop=-1;spacingLeft=3;spacingRight=3;rotatable=0;labelPosition=right;points=[];portConstraint=eastwest;" vertex="1" parent="EVIMyoNARV4k-gj09k50-6">
          <mxGeometry y="26" width="190" height="8" as="geometry" />
        </mxCell>
        <mxCell id="EVIMyoNARV4k-gj09k50-8" value="+ Arpoo sanan sanalista&#xa;   -tiedostosta." style="text;strokeColor=none;fillColor=none;align=left;verticalAlign=top;spacingLeft=4;spacingRight=4;overflow=hidden;rotatable=0;points=[[0,0.5],[1,0.5]];portConstraint=eastwest;" vertex="1" parent="EVIMyoNARV4k-gj09k50-6">
          <mxGeometry y="34" width="190" height="100" as="geometry" />
        </mxCell>
        <mxCell id="EVIMyoNARV4k-gj09k50-9" value="Hirsipuu" style="swimlane;fontStyle=1;align=center;verticalAlign=top;childLayout=stackLayout;horizontal=1;startSize=26;horizontalStack=0;resizeParent=1;resizeParentMax=0;resizeLast=0;collapsible=1;marginBottom=0;" vertex="1" parent="1">
          <mxGeometry x="70" y="420" width="190" height="124" as="geometry" />
        </mxCell>
        <mxCell id="EVIMyoNARV4k-gj09k50-10" value="" style="line;strokeWidth=1;fillColor=none;align=left;verticalAlign=middle;spacingTop=-1;spacingLeft=3;spacingRight=3;rotatable=0;labelPosition=right;points=[];portConstraint=eastwest;" vertex="1" parent="EVIMyoNARV4k-gj09k50-9">
          <mxGeometry y="26" width="190" height="8" as="geometry" />
        </mxCell>
        <mxCell id="EVIMyoNARV4k-gj09k50-11" value="+ Tarkistaa annetun kirjaimen&#xa;&#xa;+ Oikea ravaus&#xa;+ Väärä arvaus&#xa;+Tulostusmuoto" style="text;strokeColor=none;fillColor=none;align=left;verticalAlign=top;spacingLeft=4;spacingRight=4;overflow=hidden;rotatable=0;points=[[0,0.5],[1,0.5]];portConstraint=eastwest;" vertex="1" parent="EVIMyoNARV4k-gj09k50-9">
          <mxGeometry y="34" width="190" height="90" as="geometry" />
        </mxCell>
        <mxCell id="EVIMyoNARV4k-gj09k50-12" value="Käyttöliittymä" style="swimlane;fontStyle=1;align=center;verticalAlign=top;childLayout=stackLayout;horizontal=1;startSize=26;horizontalStack=0;resizeParent=1;resizeParentMax=0;resizeLast=0;collapsible=1;marginBottom=0;" vertex="1" parent="1">
          <mxGeometry x="70" y="610" width="190" height="144" as="geometry" />
        </mxCell>
        <mxCell id="EVIMyoNARV4k-gj09k50-13" value="" style="line;strokeWidth=1;fillColor=none;align=left;verticalAlign=middle;spacingTop=-1;spacingLeft=3;spacingRight=3;rotatable=0;labelPosition=right;points=[];portConstraint=eastwest;" vertex="1" parent="EVIMyoNARV4k-gj09k50-12">
          <mxGeometry y="26" width="190" height="8" as="geometry" />
        </mxCell>
        <mxCell id="EVIMyoNARV4k-gj09k50-14" value="+ Kysyy kirjaimen&#xa;&#xa;+ Käynnistää ohjelman&#xa;&#xa;+ Tulostus&#xa;" style="text;strokeColor=none;fillColor=none;align=left;verticalAlign=top;spacingLeft=4;spacingRight=4;overflow=hidden;rotatable=0;points=[[0,0.5],[1,0.5]];portConstraint=eastwest;" vertex="1" parent="EVIMyoNARV4k-gj09k50-12">
          <mxGeometry y="34" width="190" height="110" as="geometry" />
        </mxCell>
        <mxCell id="EVIMyoNARV4k-gj09k50-15" value="Ohjelma" style="swimlane;fontStyle=1;align=center;verticalAlign=top;childLayout=stackLayout;horizontal=1;startSize=26;horizontalStack=0;resizeParent=1;resizeParentMax=0;resizeLast=0;collapsible=1;marginBottom=0;" vertex="1" parent="1">
          <mxGeometry x="70" y="70" width="190" height="144" as="geometry" />
        </mxCell>
        <mxCell id="EVIMyoNARV4k-gj09k50-16" value="" style="line;strokeWidth=1;fillColor=none;align=left;verticalAlign=middle;spacingTop=-1;spacingLeft=3;spacingRight=3;rotatable=0;labelPosition=right;points=[];portConstraint=eastwest;" vertex="1" parent="EVIMyoNARV4k-gj09k50-15">
          <mxGeometry y="26" width="190" height="8" as="geometry" />
        </mxCell>
        <mxCell id="EVIMyoNARV4k-gj09k50-17" value="+ Käynnistää ohjelman" style="text;strokeColor=none;fillColor=none;align=left;verticalAlign=top;spacingLeft=4;spacingRight=4;overflow=hidden;rotatable=0;points=[[0,0.5],[1,0.5]];portConstraint=eastwest;" vertex="1" parent="EVIMyoNARV4k-gj09k50-15">
          <mxGeometry y="34" width="190" height="110" as="geometry" />
        </mxCell>
      </root>
    </mxGraphModel>
  </diagram>
</mxfile>
